<svg width="10" height="10" viewBox="0 0 10 10" fill="none" xmlns="http://www.w3.org/2000/svg">
<path d="M7.49999 5.62499V3.15457C7.50139 2.79861 7.43214 2.44591 7.29625 2.1169C7.16035 1.78789 6.96052 1.48913 6.70833 1.23791L6.26041 0.791657C6.00919 0.539464 5.71042 0.339632 5.38142 0.203738C5.05241 0.0678439 4.69971 -0.00140945 4.34374 -9.71581e-06H3.12499C2.51741 0.000652022 1.9349 0.242307 1.50527 0.671935C1.07565 1.10156 0.83399 1.68407 0.833328 2.29166V5.62499C0.83399 6.23257 1.07565 6.81508 1.50527 7.24471C1.9349 7.67434 2.51741 7.916 3.12499 7.91666H5.20833C5.81591 7.916 6.39842 7.67434 6.82805 7.24471C7.25768 6.81508 7.49933 6.23257 7.49999 5.62499ZM2.08333 5.62499V2.29166C2.08333 2.01539 2.19307 1.75044 2.38843 1.55509C2.58378 1.35974 2.84873 1.24999 3.12499 1.24999H4.34541C4.42522 1.25124 4.50479 1.25905 4.58333 1.27332V2.08332C4.58333 2.30434 4.67113 2.5163 4.82741 2.67258C4.98369 2.82886 5.19565 2.91666 5.41666 2.91666H6.22666C6.24094 2.99519 6.24874 3.07476 6.24999 3.15457V5.62499C6.24999 5.90126 6.14025 6.16621 5.9449 6.36156C5.74955 6.55691 5.4846 6.66666 5.20833 6.66666H3.12499C2.84873 6.66666 2.58378 6.55691 2.38843 6.36156C2.19307 6.16621 2.08333 5.90126 2.08333 5.62499ZM9.58333 3.54166V7.70832C9.58267 8.31591 9.34101 8.89842 8.91138 9.32805C8.48176 9.75767 7.89925 9.99933 7.29166 9.99999H3.95833C3.79257 9.99999 3.6336 9.93414 3.51639 9.81693C3.39918 9.69972 3.33333 9.54075 3.33333 9.37499C3.33333 9.20923 3.39918 9.05026 3.51639 8.93305C3.6336 8.81584 3.79257 8.74999 3.95833 8.74999H7.29166C7.56793 8.74999 7.83288 8.64024 8.02823 8.44489C8.22358 8.24954 8.33333 7.98459 8.33333 7.70832V3.54166C8.33333 3.3759 8.39918 3.21693 8.51639 3.09972C8.6336 2.98251 8.79257 2.91666 8.95833 2.91666C9.12409 2.91666 9.28306 2.98251 9.40027 3.09972C9.51748 3.21693 9.58333 3.3759 9.58333 3.54166Z" fill="#A4A4A4"/>
</svg>
