<svg width="16" height="16" viewBox="0 0 16 16" fill="none" xmlns="http://www.w3.org/2000/svg">
<path d="M11.7213 5.64067C12.1033 6.03867 12.0913 6.672 11.6927 7.05467L8.62267 10.004C8.17733 10.4433 7.588 10.6633 6.99733 10.6633C6.40667 10.6633 5.81467 10.4433 5.36333 10.0027L4.332 9.07733C3.92133 8.708 3.88733 8.076 4.25667 7.66533C4.626 7.25533 5.25667 7.22 5.66933 7.59L6.73067 8.54333C6.88867 8.69667 7.10067 8.698 7.228 8.57133L10.308 5.61267C10.706 5.23 11.3373 5.24133 11.7213 5.64067ZM16 8C16 12.4113 12.4113 16 8 16C3.58867 16 0 12.4113 0 8C0 3.58867 3.58867 0 8 0C12.4113 0 16 3.58867 16 8ZM14 8C14 4.692 11.3087 2 8 2C4.69133 2 2 4.692 2 8C2 11.308 4.69133 14 8 14C11.3087 14 14 11.308 14 8Z" fill="white"/>
</svg>
